<svg width="440" height="429" viewBox="0 0 440 429" fill="none" xmlns="http://www.w3.org/2000/svg">
<line x1="196.324" y1="409.889" x2="421.891" y2="184.322" stroke="#3399FF" stroke-width="50"/>
<line y1="-25" x2="150" y2="-25" transform="matrix(-0.707107 -0.707107 -0.707107 0.707107 214.068 428.066)" stroke="#3399FF" stroke-width="50"/>
<line y1="-25" x2="150" y2="-25" transform="matrix(-0.707107 -0.707107 -0.707107 0.707107 214.068 428.066)" stroke="#3399FF" stroke-width="50"/>
<line y1="-12.5" x2="150" y2="-12.5" transform="matrix(0.707107 0.707107 0.707107 -0.707107 333.002 96)" stroke="#3399FF" stroke-width="25"/>
<line x1="341.907" y1="104.839" x2="253.518" y2="193.227" stroke="#3399FF" stroke-width="25"/>
<line x1="289.518" y1="95.8388" x2="271.841" y2="113.517" stroke="#3399FF" stroke-width="25"/>
<line x1="93.5165" y1="138.839" x2="75.8388" y2="156.517" stroke="#3399FF" stroke-width="25"/>
<line x1="262.518" y1="120.839" x2="244.841" y2="138.517" stroke="#3399FF" stroke-width="25"/>
<line y1="-12.5" x2="150" y2="-12.5" transform="matrix(-0.707107 -0.707107 -0.707107 0.707107 351.068 290.066)" stroke="#3399FF" stroke-width="25"/>
<line y1="-12.5" x2="120" y2="-12.5" transform="matrix(-0.707107 -0.707107 -0.707107 0.707107 84.8528 268.853)" stroke="#3399FF" stroke-width="25"/>
<line x1="76.1612" y1="260.014" x2="161.014" y2="175.161" stroke="#3399FF" stroke-width="25"/>
<line x1="203.495" y1="58.5779" x2="211.936" y2="308.435" stroke="#3399FF" stroke-width="25"/>
<line x1="212.305" y1="6.6967" x2="237.054" y2="31.4454" stroke="#3399FF" stroke-width="15"/>
<line x1="163.305" y1="25.6967" x2="188.054" y2="50.4454" stroke="#3399FF" stroke-width="15"/>
<line y1="-7.5" x2="62.9682" y2="-7.5" transform="matrix(-0.707107 0.707107 0.707107 0.707107 227.527 11)" stroke="#3399FF" stroke-width="15"/>
</svg>
